<svg width="64" height="64" viewBox="0 0 64 64" fill="none" xmlns="http://www.w3.org/2000/svg">
<path d="M64 0H0V64H64V0Z" fill="#FFE158"/>
<path d="M23.38 29.84V35.01H31.93C31.59 37.23 29.34 41.52 23.38 41.52C18.23 41.52 14.03 37.25 14.03 32C14.03 26.74 18.23 22.48 23.38 22.48C26.31 22.48 28.27 23.73 29.39 24.81L33.48 20.87C30.85 18.41 27.45 16.93 23.37 16.93C15.03 16.93 8.29004 23.67 8.29004 32.01C8.29004 40.35 15.03 47.09 23.37 47.09C32.08 47.09 37.85 40.97 37.85 32.35C37.85 31.36 37.74 30.6 37.61 29.85H23.38V29.84Z" fill="black"/>
<path d="M55.7 29.84H51.39V25.53H47.08V29.84H42.77V34.15H47.08V38.46H51.39V34.15H55.7V29.84Z" fill="black"/>
</svg>
