<svg width="64" height="64" viewBox="0 0 64 64" fill="none" xmlns="http://www.w3.org/2000/svg">
<path d="M64 0H0V64H64V0Z" fill="#FFE158"/>
<path d="M40.61 12.81H23.39C17.55 12.81 12.81 17.55 12.81 23.39V40.61C12.81 46.45 17.55 51.19 23.39 51.19H40.61C46.45 51.19 51.19 46.45 51.19 40.61V23.39C51.19 17.55 46.46 12.81 40.61 12.81ZM48.09 40.57C48.09 44.73 44.72 48.09 40.57 48.09H23.43C19.27 48.09 15.91 44.72 15.91 40.57V23.43C15.91 19.27 19.28 15.91 23.43 15.91H40.57C44.73 15.91 48.09 19.28 48.09 23.43V40.57Z" fill="black"/>
<path d="M32 21.89C26.41 21.89 21.88 26.42 21.88 32.01C21.88 37.6 26.41 42.13 32 42.13C37.59 42.13 42.12 37.6 42.12 32.01C42.12 26.42 37.59 21.89 32 21.89ZM32 38.6C28.36 38.6 25.4 35.65 25.4 32C25.4 28.36 28.35 25.4 32 25.4C35.65 25.4 38.6 28.35 38.6 32C38.6 35.65 35.64 38.6 32 38.6Z" fill="black"/>
<path d="M42.46 23.82C43.7137 23.82 44.73 22.8037 44.73 21.55C44.73 20.2963 43.7137 19.28 42.46 19.28C41.2063 19.28 40.19 20.2963 40.19 21.55C40.19 22.8037 41.2063 23.82 42.46 23.82Z" fill="black"/>
</svg>
