<svg width="64" height="64" viewBox="0 0 64 64" fill="none" xmlns="http://www.w3.org/2000/svg">
<path d="M64 0H0V64H64V0Z" fill="#FFE158"/>
<path d="M50.07 36.29V49.83H42.22V37.2C42.22 34.03 41.09 31.86 38.24 31.86C36.07 31.86 34.78 33.32 34.21 34.73C34 35.23 33.95 35.94 33.95 36.64V49.83H26.1C26.1 49.83 26.21 28.43 26.1 26.22H33.95V29.57C33.93 29.6 33.91 29.62 33.9 29.65H33.95V29.57C34.99 27.96 36.85 25.67 41.03 25.67C46.2 25.66 50.07 29.04 50.07 36.29ZM13.92 49.83H21.77V26.22H13.92V49.83ZM22 18.2C22 20.43 20.19 22.24 17.96 22.24C15.73 22.24 13.92 20.43 13.92 18.2C13.92 15.97 15.73 14.16 17.96 14.16C20.19 14.16 22 15.97 22 18.2Z" fill="black"/>
</svg>
