<svg width="115" height="104" viewBox="0 0 115 104" fill="none" xmlns="http://www.w3.org/2000/svg">
<path d="M96.4172 101.3C88.9505 101.3 83.9505 95.6333 81.4172 84.3C74.2172 96.7667 65.9839 103.133 56.7172 103.4C51.3839 103.267 47.1505 100.233 44.0172 94.3C40.8839 88.4333 39.3172 80.4333 39.3172 70.3C39.3172 54.9 42.5505 37.2667 49.0172 17.4C41.1505 21.2667 34.7505 26 29.8172 31.6C25.0172 37.0667 22.6172 41.9667 22.6172 46.3C22.6172 48.7667 23.4839 50.5667 25.2172 51.7C26.4839 52.7 27.1172 53.7333 27.1172 54.8C27.1172 55.8 26.4505 56.6667 25.1172 57.4C23.7839 58.1333 22.0172 58.5667 19.8172 58.7C14.6172 58.9 10.1505 57.6333 6.41719 54.9C2.75052 52.1 0.917187 48.2333 0.917187 43.3C0.917187 41.1 1.25052 39.0333 1.91719 37.1C4.85052 28.3667 11.7839 20.3667 22.7172 13.1C33.7839 5.63333 45.9505 1.46666 59.2172 0.599994C60.4172 0.466662 61.1839 0.399996 61.5172 0.399996C64.9172 0.399996 67.5505 1.2 69.4172 2.8C71.3505 4.39999 71.9839 6.33333 71.3172 8.6C63.1172 35.6 59.0172 55.6 59.0172 68.6C59.0172 73.4 59.5172 77 60.5172 79.4C61.5839 81.7333 62.9505 82.9 64.6172 82.9C67.6172 82.9 70.8839 78.7 74.4172 70.3C78.0172 61.5667 80.9839 51.9333 83.3172 41.4C83.3172 40.9333 83.4172 40.6 83.6172 40.4C86.0172 30.2667 89.1839 21.9333 93.1172 15.4C96.9839 8.8 100.717 5.66666 104.317 6C107.251 6.26666 109.751 7.46666 111.817 9.6C113.884 11.6667 114.384 13.5 113.317 15.1C111.384 18.4333 109.151 23.5 106.617 30.3C103.817 37.7 101.851 44.3 100.717 50.1C99.2505 56.4333 98.5172 62.5 98.5172 68.3C98.5172 73.8333 99.1505 78.4 100.417 82C101.751 85.5333 103.551 87.5667 105.817 88.1C107.551 88.6333 108.417 89.7667 108.417 91.5C108.417 93.6333 107.217 95.8 104.817 98C102.417 100.2 99.6172 101.3 96.4172 101.3Z" fill="#2188FF"/>
</svg>
